HIERARCHY
ROOT hip
{
	OFFSET 0.000000 0.000000 0.000000 
	CHANNELS 6 Xposition Yposition Zposition Xrotation Zrotation Yrotation
	JOINT abdomen
	{
		OFFSET 0.000000 3.402643 0.000000 
		CHANNELS 3 Xrotation Zrotation Yrotation
		JOINT chest
		{
			OFFSET 0.000000 8.438565 -0.680529 
			CHANNELS 3 Xrotation Zrotation Yrotation
			JOINT neck
			{
				OFFSET 0.000000 10.207942 -0.272212 
				CHANNELS 3 Xrotation Zrotation Yrotation
				JOINT head
				{
					OFFSET 0.000000 3.130431 0.000000 
					CHANNELS 3 Xrotation Zrotation Yrotation
					End Site
					{
						OFFSET 0.000000 3.130435 0.000000 
					}
				}
			}
			JOINT lCollar
			{
				OFFSET 3.470700 6.669187 -0.816635 
				CHANNELS 3 Yrotation Zrotation Xrotation
				JOINT lShldr
				{
					OFFSET 3.198488 0.000000 0.000000 
					CHANNELS 3 Zrotation Yrotation Xrotation
					JOINT lForeArm
					{
						OFFSET 10.139888 0.000000 0.000000 
						CHANNELS 3 Yrotation Zrotation Xrotation
						JOINT lHand
						{
							OFFSET 8.370511 0.000000 0.000000 
							CHANNELS 3 Zrotation Yrotation Xrotation
							End Site
							{
								OFFSET 4.083176 0.000000 0.000000 
							}
						}
					}
				}
			}
			JOINT rCollar
			{
				OFFSET -3.470700 6.669187 -0.816635 
				CHANNELS 3 Yrotation Zrotation Xrotation
				JOINT rShldr
				{
					OFFSET -3.198488 0.000000 0.000000 
					CHANNELS 3 Zrotation Yrotation Xrotation
					JOINT rForeArm
					{
						OFFSET -10.139888 0.000000 0.000000 
						CHANNELS 3 Yrotation Zrotation Xrotation
						JOINT rHand
						{
							OFFSET -8.370511 0.000000 0.000000 
							CHANNELS 3 Zrotation Yrotation Xrotation
							End Site
							{
								OFFSET -4.083176 0.000000 0.000000 
							}
						}
					}
				}
			}
		}
	}
	JOINT lThigh
	{
		OFFSET 5.308129 -1.633274 1.361059 
		CHANNELS 3 Xrotation Zrotation Yrotation
		JOINT lShin
		{
			OFFSET -2.041588 -20.007561 0.000000 
			CHANNELS 3 Xrotation Zrotation Yrotation
			JOINT lFoot
			{
				OFFSET 0.000000 -19.190928 -1.224953 
				CHANNELS 3 Xrotation Yrotation Zrotation
				End Site
				{
					OFFSET 0.000000 -2.449906 4.627600 
				}
			}
		}
	}
	JOINT rThigh
	{
		OFFSET -5.308129 -1.633274 1.361059 
		CHANNELS 3 Xrotation Zrotation Yrotation
		JOINT rShin
		{
			OFFSET 2.041588 -20.007561 0.000000 
			CHANNELS 3 Xrotation Zrotation Yrotation
			JOINT rFoot
			{
				OFFSET 0.000000 -19.190928 -1.224953 
				CHANNELS 3 Xrotation Yrotation Zrotation
				End Site
				{
					OFFSET 0.000000 -2.449906 4.627600 
				}
			}
		}
	}
}
MOTION
Frames: 6
Frame Time: 0.016667
0.455729 49.642868 2.540133 5.210195 5.272933 -0.793950 20.546875 0.000000 0.000000 -16.385420 -3.749810 0.576854 -9.116276 -5.383424 -11.251907 -8.021800 -1.868392 -12.545977 1.992188 -2.001953 0.000341 -29.345560 -18.329483 -7.927640 -9.677735 -1.757813 0.000000 5.602358 -21.083050 25.528530 -2.001953 1.992188 0.000000 52.041950 -10.197205 -2.329342 56.662460 1.837298 -0.070049 -17.731316 15.956512 23.603165 -40.190113 3.563634 -0.810305 78.268875 -0.476297 9.425248 2.188769 -0.310029 13.208649 -20.554958 -7.606629 -6.513311 20.767054 3.738511 -10.583383 -1.006046 -0.490109 -13.844790 
0.568281 49.908772 2.687517 5.478276 5.809159 -1.256429 20.546875 0.000000 0.000000 -16.491047 -4.120840 0.635931 -9.118449 -5.411791 -11.272271 -8.579700 -2.231466 -12.451215 1.992188 -2.001953 0.000341 -30.965622 -16.793615 -5.898135 -10.292674 -1.759557 0.009904 5.608695 -20.653885 24.589788 -2.001953 1.992188 0.000000 52.421215 -9.543406 -1.493781 55.988857 1.839797 -0.076751 -18.094490 15.897322 22.922102 -40.853798 3.007014 -0.995029 75.928047 -0.650483 9.233241 1.755193 -0.284135 12.696031 -20.817047 -8.201495 -6.599546 21.019241 3.737823 -10.398993 -0.781865 -0.485933 -13.330480 
0.640252 50.073002 2.774528 6.396445 5.933969 -1.983283 20.546875 0.000000 0.000000 -17.257454 -4.218450 0.685333 -9.185794 -5.273769 -10.955709 -9.059622 -1.956815 -12.194955 1.992188 -2.001953 0.000341 -32.941410 -14.520885 -4.708321 -11.259766 -1.767578 0.000000 5.867122 -19.768822 23.604301 -2.001953 1.992188 0.000000 52.822281 -8.575285 -0.302125 55.061188 1.841050 -0.078575 -18.537983 15.541028 21.892620 -42.127998 3.173727 -1.423913 73.521629 -0.826668 8.655243 1.202828 -0.412767 11.361604 -22.367167 -8.142004 -6.192816 22.135426 3.709711 -10.048695 -1.395499 -0.480596 -14.080384 
0.712221 50.237225 2.861533 7.321286 6.077277 -2.700426 20.546875 0.000000 0.000000 -18.024031 -4.316053 0.734020 -9.260462 -5.135120 -10.648942 -9.546843 -1.681593 -11.938981 1.992188 -2.001953 0.000341 -34.836750 -12.218614 -3.622148 -12.226563 -1.767578 0.000000 6.110277 -18.866709 22.619837 -2.001953 1.992188 0.000000 53.242378 -7.624653 0.901857 54.133316 1.840480 -0.074659 -18.969860 15.182811 20.868179 -43.382149 3.329314 -1.834449 71.094322 -1.001601 8.054455 0.650072 -0.510646 10.011097 -23.920673 -8.084145 -5.788808 23.259733 3.684963 -9.726565 -2.000599 -0.449767 -14.864412 
0.824623 50.338718 3.058361 6.835673 6.356954 -3.262239 20.546875 0.000000 0.000000 -17.291233 -4.403955 0.714535 -9.231125 -5.089076 -10.530494 -10.533573 -1.998668 -11.696886 1.992188 -2.001953 0.000341 -37.150677 -10.402336 -2.414456 -13.232422 -1.777344 0.000303 6.545566 -18.666359 21.249006 -2.001953 1.992188 0.000000 54.048405 -6.881042 1.479478 53.088257 1.839897 -0.070660 -19.317600 15.703184 20.106678 -42.725353 3.134225 -2.121070 68.105309 -1.205838 6.880444 0.675878 -0.526021 9.411085 -24.074337 -8.482907 -6.088879 24.878815 3.611855 -9.513783 -2.754377 -0.430316 -15.653509 
0.937022 50.440208 3.255181 6.345173 6.625968 -3.824124 20.546875 0.000000 0.000000 -16.568144 -4.491858 0.695054 -9.200732 -5.042814 -10.421780 -11.526862 -2.297118 -11.454779 1.992188 -2.001953 0.000341 -39.413773 -8.541905 -1.279679 -14.228222 -1.779744 0.009765 6.973876 -18.456373 19.882339 -2.001953 1.992188 0.000000 54.857967 -6.138626 2.065060 52.033409 1.829376 -0.066366 -19.679941 16.216095 19.337179 -42.078453 2.958627 -2.434921 65.107216 -1.480226 5.730536 0.691565 -0.560485 8.804188 -24.244286 -8.885210 -6.378564 26.513155 3.544905 -9.320124 -3.508842 -0.424694 -16.462139 
